<svg width="512" height="512" viewBox="0 0 512 512" fill="none" xmlns="http://www.w3.org/2000/svg">
<g clip-path="url(#clip0_1_2)">
<circle cx="256" cy="256" r="256" fill="#314455"/>
<g filter="url(#filter0_d_1_2)">
<path d="M392.21 263.915C392.21 267.022 391.2 269.507 389.181 271.371L342.814 317.738C340.329 319.913 337.766 321 335.125 321H326.038C324.019 321 322.077 320.379 320.213 319.136C318.504 317.893 317.184 316.34 316.252 314.476C314.543 310.282 315.32 306.399 318.582 302.826L358.425 262.75C360.134 261.663 360.134 260.265 358.425 258.556L318.582 218.713C315.165 215.606 314.388 211.723 316.252 207.063C317.029 205.044 318.349 203.413 320.213 202.17C322.077 200.927 324.019 200.306 326.038 200.306H335.125C337.766 200.306 340.329 201.393 342.814 203.568L389.181 249.935C391.2 251.954 392.21 254.44 392.21 257.391V263.915Z" fill="#00C4B2"/>
</g>
<g filter="url(#filter1_d_1_2)">
<path d="M305.277 187.87L232.348 324.408C230.329 328.136 227.222 330 223.028 330H215.805C211.766 330 208.737 328.291 206.718 324.874C204.854 321.457 204.776 317.884 206.485 314.156L279.414 178.084C281.433 174.356 284.54 172.492 288.734 172.492H295.957C299.996 172.492 303.025 174.201 305.044 177.618C307.063 180.88 307.141 184.297 305.277 187.87Z" fill="#00C4B2"/>
</g>
<g filter="url(#filter2_d_1_2)">
<path d="M194.278 207.063C195.987 211.412 195.288 215.296 192.181 218.713L151.872 258.556C150.474 260.265 150.474 261.663 151.872 262.75L191.715 302.826C195.132 306.243 195.987 310.127 194.278 314.476C193.501 316.34 192.181 317.893 190.317 319.136C188.453 320.379 186.434 321 184.259 321H175.405C172.298 321 169.813 319.913 167.949 317.738L121.349 271.371C119.33 269.352 118.32 266.866 118.32 263.915V257.391C118.32 254.75 119.33 252.265 121.349 249.935L167.949 203.568C169.813 201.393 172.298 200.306 175.405 200.306H184.492C186.667 200.306 188.608 200.927 190.317 202.17C192.181 203.413 193.501 205.044 194.278 207.063Z" fill="#00C4B2"/>
</g>
</g>
<defs>
<filter id="filter0_d_1_2" x="309.456" y="200.306" width="86.754" height="129.694" filterUnits="userSpaceOnUse" color-interpolation-filters="sRGB">
<feFlood flood-opacity="0" result="BackgroundImageFix"/>
<feColorMatrix in="SourceAlpha" type="matrix" values="0 0 0 0 0 0 0 0 0 0 0 0 0 0 0 0 0 0 127 0" result="hardAlpha"/>
<feOffset dy="5"/>
<feGaussianBlur stdDeviation="2"/>
<feComposite in2="hardAlpha" operator="out"/>
<feColorMatrix type="matrix" values="0 0 0 0 0 0 0 0 0 0 0 0 0 0 0 0 0 0 0.58 0"/>
<feBlend mode="normal" in2="BackgroundImageFix" result="effect1_dropShadow_1_2"/>
<feBlend mode="normal" in="SourceGraphic" in2="effect1_dropShadow_1_2" result="shape"/>
</filter>
<filter id="filter1_d_1_2" x="199.922" y="172.492" width="112.151" height="166.508" filterUnits="userSpaceOnUse" color-interpolation-filters="sRGB">
<feFlood flood-opacity="0" result="BackgroundImageFix"/>
<feColorMatrix in="SourceAlpha" type="matrix" values="0 0 0 0 0 0 0 0 0 0 0 0 0 0 0 0 0 0 127 0" result="hardAlpha"/>
<feOffset dy="5"/>
<feGaussianBlur stdDeviation="2"/>
<feComposite in2="hardAlpha" operator="out"/>
<feColorMatrix type="matrix" values="0 0 0 0 0 0 0 0 0 0 0 0 0 0 0 0 0 0 0.58 0"/>
<feBlend mode="normal" in2="BackgroundImageFix" result="effect1_dropShadow_1_2"/>
<feBlend mode="normal" in="SourceGraphic" in2="effect1_dropShadow_1_2" result="shape"/>
</filter>
<filter id="filter2_d_1_2" x="114.32" y="200.306" width="86.521" height="129.694" filterUnits="userSpaceOnUse" color-interpolation-filters="sRGB">
<feFlood flood-opacity="0" result="BackgroundImageFix"/>
<feColorMatrix in="SourceAlpha" type="matrix" values="0 0 0 0 0 0 0 0 0 0 0 0 0 0 0 0 0 0 127 0" result="hardAlpha"/>
<feOffset dy="5"/>
<feGaussianBlur stdDeviation="2"/>
<feComposite in2="hardAlpha" operator="out"/>
<feColorMatrix type="matrix" values="0 0 0 0 0 0 0 0 0 0 0 0 0 0 0 0 0 0 0.58 0"/>
<feBlend mode="normal" in2="BackgroundImageFix" result="effect1_dropShadow_1_2"/>
<feBlend mode="normal" in="SourceGraphic" in2="effect1_dropShadow_1_2" result="shape"/>
</filter>
<clipPath id="clip0_1_2">
<rect width="512" height="512" fill="white"/>
</clipPath>
</defs>
</svg>
